<svg
  xmlns="http://www.w3.org/2000/svg"
  viewBox="0 0 1200 820"
  role="img"
  aria-labelledby="title desc"
>
  <title id="title">Azizbek / Kevin 3D Neural Developer Brain</title>
  <desc id="desc">
    Animated volumetric 3D neural developer brain for Azizbek / Kevin,
    representing Full Stack Development, Robotics and AI.
  </desc>

  <defs>
    <!-- ===================== GRADIENTS ===================== -->

    <linearGradient id="brainFrontLeft" x1="0%" y1="0%" x2="100%" y2="100%">
      <stop offset="0%" stop-color="#26F7FF"/>
      <stop offset="18%" stop-color="#008CFF"/>
      <stop offset="45%" stop-color="#35207A"/>
      <stop offset="72%" stop-color="#9B176C"/>
      <stop offset="100%" stop-color="#F7317F"/>
    </linearGradient>

    <linearGradient id="brainFrontRight" x1="100%" y1="0%" x2="0%" y2="100%">
      <stop offset="0%" stop-color="#B24CFF"/>
      <stop offset="22%" stop-color="#7F00FF"/>
      <stop offset="52%" stop-color="#42207E"/>
      <stop offset="78%" stop-color="#C51C80"/>
      <stop offset="100%" stop-color="#FF4AA5"/>
    </linearGradient>

    <linearGradient id="brainDepth" x1="0%" y1="0%" x2="100%" y2="100%">
      <stop offset="0%" stop-color="#001C33"/>
      <stop offset="45%" stop-color="#17002F"/>
      <stop offset="100%" stop-color="#39001F"/>
    </linearGradient>

    <linearGradient id="brainEdge" x1="0%" x2="100%">
      <stop offset="0%" stop-color="#00E5FF"/>
      <stop offset="50%" stop-color="#F7317F"/>
      <stop offset="100%" stop-color="#9D00FF"/>
    </linearGradient>

    <radialGradient id="highlight">
      <stop offset="0%" stop-color="#FFFFFF" stop-opacity=".95"/>
      <stop offset="30%" stop-color="#8FFBFF" stop-opacity=".55"/>
      <stop offset="100%" stop-color="#8FFBFF" stop-opacity="0"/>
    </radialGradient>

    <radialGradient id="nodeGradient">
      <stop offset="0%" stop-color="#FFFFFF"/>
      <stop offset="28%" stop-color="#00E5FF"/>
      <stop offset="62%" stop-color="#F7317F"/>
      <stop offset="100%" stop-color="#7F00FF"/>
    </radialGradient>

    <radialGradient id="hubGradient">
      <stop offset="0%" stop-color="#FFFFFF"/>
      <stop offset="20%" stop-color="#00E5FF"/>
      <stop offset="60%" stop-color="#F7317F"/>
      <stop offset="100%" stop-color="#5200FF"/>
    </radialGradient>

    <!-- ===================== FILTERS ===================== -->

    <filter id="brainShadow" x="-60%" y="-60%" width="240%" height="240%">
      <feDropShadow
        dx="20"
        dy="26"
        stdDeviation="16"
        flood-color="#000000"
        flood-opacity=".92"
      />
      <feDropShadow
        dx="-8"
        dy="-6"
        stdDeviation="8"
        flood-color="#00E5FF"
        flood-opacity=".30"
      />
    </filter>

    <filter id="glow" x="-100%" y="-100%" width="300%" height="300%">
      <feGaussianBlur stdDeviation="7" result="blur"/>
      <feMerge>
        <feMergeNode in="blur"/>
        <feMergeNode in="SourceGraphic"/>
      </feMerge>
    </filter>

    <filter id="softGlow" x="-100%" y="-100%" width="300%" height="300%">
      <feGaussianBlur stdDeviation="3" result="blur"/>
      <feMerge>
        <feMergeNode in="blur"/>
        <feMergeNode in="SourceGraphic"/>
      </feMerge>
    </filter>

    <!-- ===================== STYLES ===================== -->

    <style>
      .brain-group {
        transform-origin: 600px 340px;
        animation: brainFloat 5s ease-in-out infinite;
      }

      .depth-far {
        fill: #070312;
        stroke: #260049;
        stroke-width: 10;
        opacity: .46;
      }

      .depth-mid {
        fill: url(#brainDepth);
        stroke: #53007D;
        stroke-width: 8;
        opacity: .65;
      }

      .depth-near {
        fill: url(#brainDepth);
        stroke: #0089A8;
        stroke-width: 6;
        opacity: .80;
      }

      .left-front {
        fill: url(#brainFrontLeft);
        stroke: url(#brainEdge);
        stroke-width: 5;
        stroke-linecap: round;
        stroke-linejoin: round;
        filter: url(#brainShadow);
      }

      .right-front {
        fill: url(#brainFrontRight);
        stroke: url(#brainEdge);
        stroke-width: 5;
        stroke-linecap: round;
        stroke-linejoin: round;
        filter: url(#brainShadow);
      }

      .fold-dark {
        fill: none;
        stroke: #070713;
        stroke-width: 10;
        opacity: .45;
        stroke-linecap: round;
      }

      .fold {
        fill: none;
        stroke: #8EF8FF;
        stroke-width: 3;
        opacity: .48;
        stroke-linecap: round;
        filter: url(#softGlow);
        stroke-dasharray: 14 8;
        animation: foldFlow 8s linear infinite;
      }

      .fold.pink {
        stroke: #FF62B5;
      }

      .fold.purple {
        stroke: #C477FF;
      }

      .wire {
        fill: none;
        stroke: url(#brainEdge);
        stroke-width: 2.4;
        opacity: .78;
        stroke-dasharray: 6 10;
        filter: url(#softGlow);
        animation: signalMove 4s linear infinite;
      }

      .wire.fast {
        animation-duration: 2.6s;
      }

      .wire.slow {
        animation-duration: 7s;
        opacity: .48;
      }

      .node {
        fill: url(#nodeGradient);
        stroke: white;
        stroke-width: 1.4;
        filter: url(#glow);
        transform-box: fill-box;
        transform-origin: center;
        animation: nodePulse 2.2s ease-in-out infinite;
      }

      .n2 { animation-delay: -.35s; }
      .n3 { animation-delay: -.70s; }
      .n4 { animation-delay: -1.05s; }
      .n5 { animation-delay: -1.40s; }

      .shine {
        fill: url(#highlight);
        opacity: .8;
        transform-box: fill-box;
        transform-origin: center;
        animation: shinePulse 3.5s ease-in-out infinite;
      }

      .center-hub {
        fill: url(#hubGradient);
        stroke: #FFFFFF;
        stroke-width: 1.2;
        filter: url(#glow);
        transform-box: fill-box;
        transform-origin: center;
        animation: hubPulse 2.8s ease-in-out infinite;
      }

      .center-hub-ring {
        fill: none;
        stroke: #00E5FF;
        stroke-width: 2;
        opacity: .55;
        stroke-dasharray: 6 10;
        transform-origin: 600px 340px;
        animation: rotateRing 7s linear infinite;
      }

      .center-hub-ring.second {
        stroke: #F7317F;
        animation-direction: reverse;
        animation-duration: 10s;
      }

      .main-title {
        font-family:
          ui-monospace,
          SFMono-Regular,
          Menlo,
          Monaco,
          Consolas,
          monospace;
        font-size: 30px;
        font-weight: 900;
        fill: #FFFFFF;
        paint-order: stroke;
        stroke: #050711;
        stroke-width: 5px;
        stroke-linejoin: round;
      }

      .sub-title {
        font-family:
          ui-monospace,
          SFMono-Regular,
          Menlo,
          Monaco,
          Consolas,
          monospace;
        font-size: 14px;
        font-weight: 800;
        fill: #00E5FF;
        letter-spacing: 2.4px;
      }

      .mindset {
        font-family:
          ui-monospace,
          SFMono-Regular,
          Menlo,
          Monaco,
          Consolas,
          monospace;
        font-size: 12px;
        font-weight: 700;
        fill: #D9E9FF;
      }

      .tech {
        font-family:
          ui-monospace,
          SFMono-Regular,
          Menlo,
          Monaco,
          Consolas,
          monospace;
        font-size: 21px;
        font-weight: 900;
        fill: #FFFFFF;
        paint-order: stroke;
        stroke: #060713;
        stroke-width: 5px;
      }

      .tech-small {
        font-family:
          ui-monospace,
          SFMono-Regular,
          Menlo,
          Monaco,
          Consolas,
          monospace;
        font-size: 14px;
        font-weight: 700;
        fill: #C4D1EA;
      }

      .scanner {
        stroke: #00E5FF;
        stroke-width: 2;
        opacity: 0;
        filter: url(#glow);
        animation: scan 4.5s ease-in-out infinite;
      }

      .info-card {
        fill: rgba(10, 14, 28, 0.78);
        stroke: url(#brainEdge);
        stroke-width: 2.2;
        filter: url(#brainShadow);
      }

      .info-card-glow {
        fill: none;
        stroke: rgba(255,255,255,0.22);
        stroke-width: 1.2;
      }

      .info-title {
        font-family:
          ui-monospace,
          SFMono-Regular,
          Menlo,
          Monaco,
          Consolas,
          monospace;
        font-size: 28px;
        font-weight: 900;
        fill: #FFFFFF;
        letter-spacing: 1px;
      }

      .info-sub {
        font-family:
          ui-monospace,
          SFMono-Regular,
          Menlo,
          Monaco,
          Consolas,
          monospace;
        font-size: 14px;
        font-weight: 800;
        fill: #00E5FF;
        letter-spacing: 2.2px;
      }

      .info-mini {
        font-family:
          ui-monospace,
          SFMono-Regular,
          Menlo,
          Monaco,
          Consolas,
          monospace;
        font-size: 12px;
        font-weight: 700;
        fill: #D9E9FF;
      }

      .info-pill {
        fill: rgba(255,255,255,0.06);
        stroke: rgba(255,255,255,0.15);
        stroke-width: 1;
      }

      .info-pill-text {
        font-family:
          ui-monospace,
          SFMono-Regular,
          Menlo,
          Monaco,
          Consolas,
          monospace;
        font-size: 11px;
        font-weight: 700;
        fill: #FFFFFF;
      }

      @keyframes brainFloat {
        0%, 100% {
          transform: translateY(0px) rotate(-0.3deg);
        }
        50% {
          transform: translateY(-10px) rotate(.3deg);
        }
      }

      @keyframes foldFlow {
        to {
          stroke-dashoffset: -250;
        }
      }

      @keyframes signalMove {
        to {
          stroke-dashoffset: -170;
        }
      }

      @keyframes nodePulse {
        0%, 100% {
          transform: scale(.80);
          opacity: .70;
        }
        50% {
          transform: scale(1.45);
          opacity: 1;
        }
      }

      @keyframes hubPulse {
        0%, 100% {
          transform: scale(.88);
          opacity: .75;
        }
        50% {
          transform: scale(1.18);
          opacity: 1;
        }
      }

      @keyframes rotateRing {
        from {
          transform: rotate(0deg);
        }
        to {
          transform: rotate(360deg);
        }
      }

      @keyframes shinePulse {
        0%, 100% {
          opacity: .35;
          transform: scale(.9);
        }
        50% {
          opacity: .9;
          transform: scale(1.05);
        }
      }

      @keyframes scan {
        0%, 100% {
          transform: translateY(-230px);
          opacity: 0;
        }
        12% {
          opacity: .8;
        }
        85% {
          opacity: .8;
        }
        96% {
          transform: translateY(270px);
          opacity: 0;
        }
      }

      @media (prefers-reduced-motion: reduce) {
        * {
          animation: none !important;
        }
      }
    </style>
  </defs>

  <!-- ===================== BRAIN GROUP ===================== -->

  <g class="brain-group">

    <!-- ===================== FAR DEPTH ===================== -->

    <g transform="translate(34 34) scale(.965)">
      <path
        class="depth-far"
        d="
          M594 86
          C518 34 413 49 358 113
          C300 101 244 137 224 196
          C166 216 143 279 165 334
          C127 386 148 458 205 485
          C220 551 291 581 357 552
          C411 607 516 582 566 518
          C589 488 596 454 596 418
          Z
        "
      />
      <path
        class="depth-far"
        d="
          M606 86
          C682 34 787 49 842 113
          C900 101 956 137 976 196
          C1034 216 1057 279 1035 334
          C1073 386 1052 458 995 485
          C980 551 909 581 843 552
          C789 607 684 582 634 518
          C611 488 604 454 604 418
          Z
        "
      />
    </g>

    <!-- ===================== MID DEPTH ===================== -->

    <g transform="translate(22 23) scale(.977)">
      <path
        class="depth-mid"
        d="
          M594 86
          C518 34 413 49 358 113
          C300 101 244 137 224 196
          C166 216 143 279 165 334
          C127 386 148 458 205 485
          C220 551 291 581 357 552
          C411 607 516 582 566 518
          C589 488 596 454 596 418
          Z
        "
      />
      <path
        class="depth-mid"
        d="
          M606 86
          C682 34 787 49 842 113
          C900 101 956 137 976 196
          C1034 216 1057 279 1035 334
          C1073 386 1052 458 995 485
          C980 551 909 581 843 552
          C789 607 684 582 634 518
          C611 488 604 454 604 418
          Z
        "
      />
    </g>

    <!-- ===================== NEAR DEPTH ===================== -->

    <g transform="translate(11 12) scale(.989)">
      <path
        class="depth-near"
        d="
          M594 86
          C518 34 413 49 358 113
          C300 101 244 137 224 196
          C166 216 143 279 165 334
          C127 386 148 458 205 485
          C220 551 291 581 357 552
          C411 607 516 582 566 518
          C589 488 596 454 596 418
          Z
        "
      />
      <path
        class="depth-near"
        d="
          M606 86
          C682 34 787 49 842 113
          C900 101 956 137 976 196
          C1034 216 1057 279 1035 334
          C1073 386 1052 458 995 485
          C980 551 909 581 843 552
          C789 607 684 582 634 518
          C611 488 604 454 604 418
          Z
        "
      />
    </g>

    <!-- ===================== FRONT FACE ===================== -->

    <path
      class="left-front"
      d="
        M594 86
        C518 34 413 49 358 113
        C300 101 244 137 224 196
        C166 216 143 279 165 334
        C127 386 148 458 205 485
        C220 551 291 581 357 552
        C411 607 516 582 566 518
        C589 488 596 454 596 418
        Z
      "
    />

    <path
      class="right-front"
      d="
        M606 86
        C682 34 787 49 842 113
        C900 101 956 137 976 196
        C1034 216 1057 279 1035 334
        C1073 386 1052 458 995 485
        C980 551 909 581 843 552
        C789 607 684 582 634 518
        C611 488 604 454 604 418
        Z
      "
    />

    <!-- ===================== HIGHLIGHTS ===================== -->

    <ellipse class="shine" cx="390" cy="185" rx="125" ry="95"/>
    <ellipse class="shine" cx="805" cy="195" rx="110" ry="85"/>

    <!-- ===================== LEFT FOLDS ===================== -->

    <path class="fold-dark" d="M360 117 Q310 190 365 245 T330 365 T390 500"/>
    <path class="fold-dark" d="M458 72 Q408 175 460 250 T430 392 T482 540"/>
    <path class="fold-dark" d="M270 188 Q355 220 315 292 T280 425"/>
    <path class="fold-dark" d="M522 124 Q480 215 518 292 T500 455"/>

    <path class="fold" d="M354 111 Q304 184 359 239 T324 359 T384 494"/>
    <path class="fold pink" d="M452 66 Q402 169 454 244 T424 386 T476 534"/>
    <path class="fold purple" d="M264 182 Q349 214 309 286 T274 419"/>
    <path class="fold" d="M516 118 Q474 209 512 286 T494 449"/>

    <!-- ===================== RIGHT FOLDS ===================== -->

    <path class="fold-dark" d="M840 117 Q890 190 835 245 T870 365 T810 500"/>
    <path class="fold-dark" d="M742 72 Q792 175 740 250 T770 392 T718 540"/>
    <path class="fold-dark" d="M930 188 Q845 220 885 292 T920 425"/>
    <path class="fold-dark" d="M678 124 Q720 215 682 292 T700 455"/>

    <path class="fold pink" d="M846 111 Q896 184 841 239 T876 359 T816 494"/>
    <path class="fold" d="M748 66 Q798 169 746 244 T776 386 T724 534"/>
    <path class="fold purple" d="M936 182 Q851 214 891 286 T926 419"/>
    <path class="fold" d="M684 118 Q726 209 688 286 T706 449"/>

    <!-- ===================== NEURAL NETWORK ===================== -->

    <path class="wire fast" d="M270 207 Q385 170 500 232 T600 340"/>
    <path class="wire" d="M213 340 Q345 290 440 354 T580 435"/>
    <path class="wire slow" d="M265 472 Q385 420 470 472 T585 505"/>
    <path class="wire" d="M365 126 Q420 210 348 295 T268 410"/>

    <path class="wire fast" d="M930 207 Q815 170 700 232 T600 340"/>
    <path class="wire" d="M987 340 Q855 290 760 354 T620 435"/>
    <path class="wire slow" d="M935 472 Q815 420 730 472 T615 505"/>
    <path class="wire" d="M835 126 Q780 210 852 295 T932 410"/>

    <path class="wire fast" d="M348 295 C470 220 730 220 852 295"/>
    <path class="wire" d="M300 415 C455 345 745 345 900 415"/>
    <path class="wire slow" d="M408 515 C510 448 690 448 792 515"/>

    <!-- ===================== NODES ===================== -->

    <circle class="node" cx="270" cy="207" r="9"/>
    <circle class="node n2" cx="365" cy="126" r="8"/>
    <circle class="node n3" cx="455" cy="90" r="7"/>
    <circle class="node n4" cx="348" cy="295" r="9"/>
    <circle class="node n5" cx="213" cy="340" r="8"/>
    <circle class="node n2" cx="300" cy="415" r="7"/>
    <circle class="node n3" cx="265" cy="472" r="9"/>
    <circle class="node n4" cx="408" cy="515" r="8"/>

    <circle class="node n3" cx="930" cy="207" r="9"/>
    <circle class="node n4" cx="835" cy="126" r="8"/>
    <circle class="node n5" cx="745" cy="90" r="7"/>
    <circle class="node" cx="852" cy="295" r="9"/>
    <circle class="node n2" cx="987" cy="340" r="8"/>
    <circle class="node n3" cx="900" cy="415" r="7"/>
    <circle class="node n4" cx="935" cy="472" r="9"/>
    <circle class="node n5" cx="792" cy="515" r="8"/>

    <!-- ===================== MINIMAL CENTER HUB ===================== -->

    <circle class="center-hub" cx="600" cy="340" r="14"/>
    <circle class="center-hub-ring" cx="600" cy="340" r="28"/>
    <circle class="center-hub-ring second" cx="600" cy="340" r="40"/>

    <circle class="center-hub" cx="575" cy="325" r="4"/>
    <circle class="center-hub" cx="628" cy="320" r="4"/>
    <circle class="center-hub" cx="622" cy="362" r="4"/>
    <circle class="center-hub" cx="568" cy="358" r="4"/>

    <path class="wire fast" d="M575 325 Q590 330 600 340"/>
    <path class="wire" d="M628 320 Q615 330 600 340"/>
    <path class="wire slow" d="M622 362 Q612 351 600 340"/>
    <path class="wire" d="M568 358 Q585 350 600 340"/>

    <!-- ===================== TECH LABELS ===================== -->

    <text x="96" y="165" class="tech">REACT</text>
    <text x="96" y="194" class="tech-small">TypeScript • Redux • Vite</text>

    <text x="80" y="365" class="tech">NESTJS</text>
    <text x="80" y="394" class="tech-small">Node.js • Express</text>

    <text x="165" y="575" class="tech">MONGODB</text>
    <text x="165" y="604" class="tech-small">Mongoose • PostgreSQL</text>

    <text x="940" y="165" class="tech">GRAPHQL</text>
    <text x="940" y="194" class="tech-small">REST API • JWT</text>

    <text x="945" y="365" class="tech">PYTHON</text>
    <text x="945" y="394" class="tech-small">Research • Automation</text>

    <text x="790" y="575" class="tech">ISAAC SIM</text>
    <text x="790" y="604" class="tech-small">AMR • VLM • Synthetic Data</text>

    <!-- ===================== SCANNER ===================== -->

    <line class="scanner" x1="300" y1="335" x2="900" y2="335"/>

    <!-- ===================== FLOATING INFO CARD ===================== -->

    <g transform="translate(0 0)">
      <rect
        x="380"
        y="620"
        rx="28"
        ry="28"
        width="440"
        height="92"
        class="info-card"
      />

      <rect
        x="394"
        y="632"
        rx="20"
        ry="20"
        width="412"
        height="68"
        class="info-card-glow"
      />

      <text
        x="600"
        y="653"
        text-anchor="middle"
        class="info-title"
      >
        AZIZBEK / KEVIN
      </text>

      <text
        x="600"
        y="676"
        text-anchor="middle"
        class="info-sub"
      >
        FULL STACK + ROBOTICS
      </text>

      <text
        x="600"
        y="695"
        text-anchor="middle"
        class="info-mini"
      >
        THINK → BUILD → TEST → DEBUG → IMPROVE
      </text>
    </g>

    <!-- ===================== INFO PILLS ===================== -->

    <rect x="430" y="730" rx="13" ry="13" width="82" height="26" class="info-pill"/>
    <text x="471" y="747" text-anchor="middle" class="info-pill-text">REACT</text>

    <rect x="524" y="730" rx="13" ry="13" width="88" height="26" class="info-pill"/>
    <text x="568" y="747" text-anchor="middle" class="info-pill-text">NESTJS</text>

    <rect x="624" y="730" rx="13" ry="13" width="102" height="26" class="info-pill"/>
    <text x="675" y="747" text-anchor="middle" class="info-pill-text">GRAPHQL</text>

    <rect x="738" y="730" rx="13" ry="13" width="88" height="26" class="info-pill"/>
    <text x="782" y="747" text-anchor="middle" class="info-pill-text">PYTHON</text>

  </g>
</svg>
